<svg width="25" height="24" viewBox="0 0 25 24" fill="none" xmlns="http://www.w3.org/2000/svg">
<path d="M16.5 8C18.0913 8 19.6174 8.63214 20.7426 9.75736C21.8679 10.8826 22.5 12.4087 22.5 14V21H18.5V14C18.5 13.4696 18.2893 12.9609 17.9142 12.5858C17.5391 12.2107 17.0304 12 16.5 12C15.9696 12 15.4609 12.2107 15.0858 12.5858C14.7107 12.9609 14.5 13.4696 14.5 14V21H10.5V14C10.5 12.4087 11.1321 10.8826 12.2574 9.75736C13.3826 8.63214 14.9087 8 16.5 8V8Z" stroke="#fff" stroke-width="2" stroke-linecap="round" stroke-linejoin="round"/>
<path d="M6.5 9H2.5V21H6.5V9Z" stroke="#fff" stroke-width="2" stroke-linecap="round" stroke-linejoin="round"/>
<path d="M4.5 6C5.60457 6 6.5 5.10457 6.5 4C6.5 2.89543 5.60457 2 4.5 2C3.39543 2 2.5 2.89543 2.5 4C2.5 5.10457 3.39543 6 4.5 6Z" stroke="#fff" stroke-width="2" stroke-linecap="round" stroke-linejoin="round"/>
</svg>
